<?xml version="1.0" encoding="utf-8"?>
<svg version="1.1" id="Ebene_1" xmlns="http://www.w3.org/2000/svg" xmlns:xlink="http://www.w3.org/1999/xlink" x="0px" y="0px"
	  viewBox="0 0 380 50.2" style="enable-background:new 0 0 380 50.2;" xml:space="preserve">
<style type="text/css">
	.st0{fill:#E2001A;}
</style>
<path class="st0" d="M379.8,23.2V11.5c0-3-2.1-5.2-5-5.2h-2.3c-1.3,0-2.2,0.3-3.2,1.2c-1-0.9-1.7-1.2-3.1-1.2h-1.9
	c-1.3,0-2.3,1.2-2.6,1.3V6.4h-3.7v16.7h3.7V11.1c0-0.8,0.9-1.3,1.8-1.3h1.9c0.9,0,1.8,0.8,1.8,1.7v11.9h3.7V11.3
	c0-0.9,0.8-1.7,1.8-1.7h1.7c1,0,1.9,0.8,1.9,1.8v11.7C376.1,23.2,379.8,23.2,379.8,23.2 M353.8,23.2V6.5h-3.9v12.1
	c-0.3,0.8-1,1.3-1.9,1.3h-2.1c-1,0-1.9-0.8-1.9-1.8V6.4h-3.7V18c0,3,2.2,5.4,5.4,5.4h1.8c1.3,0,2.3-1.2,2.6-1.3v1.2L353.8,23.2z
	 M335.9,23.2V11.5c0-3-2.2-5.2-5.4-5.2h-1.8c-1.3,0-2.3,1.2-2.6,1.3V0h-3.9v23.2h3.9V11.1c0-0.9,1-1.3,1.9-1.3h2.1
	c1,0,1.9,0.8,1.9,1.8v11.7H335.9z M318.8,18v-0.1h-3.9c0,1.7-0.6,1.9-1.8,1.9h-2.2c-1,0-1.8-0.9-1.8-1.9v-6.4c0-1,0.8-1.8,1.8-1.8
	h2.2c1,0,1.8,0.8,1.8,1.8h3.9c0-3.1-2.3-5.2-5.7-5.2h-2.3c-3.1,0-5.5,2.3-5.5,5.4v6.3c0,3,2.6,5.5,5.7,5.5h2.3
	C316.7,23.3,318.8,21,318.8,18 M296.3,6.3H294c-3.1,0-5.5,2.3-5.5,5.4v6.3c0,3,2.3,5.5,5.5,5.5h2.2c3.1,0,5.7-2.3,5.7-5.4v-6.4
	C301.9,8.6,299.4,6.3,296.3,6.3 M298.2,18c0,1-0.9,1.8-1.9,1.8h-2.1c-1,0-1.9-0.8-1.9-1.8v-6.6c0-1,0.9-1.8,1.9-1.8h2.1
	c1,0,1.9,0.8,1.9,1.8V18z M284.3,5.8c0-3.1-2.7-5.8-5.8-5.8h-9.6v23.2h9.6c3.1,0,5.8-2.6,5.8-5.8v-2.1c0-1.5-0.6-2.8-1.5-3.9
	c0.9-1,1.5-2.3,1.5-3.9V5.8z M280.3,17.4c0,1-0.8,1.9-1.8,1.9h-5.7v-6.1h5.7c1,0,1.8,1,1.8,2.1V17.4z M280.3,7.7
	c0,1-0.8,1.8-1.8,1.8h-5.7V3.7h5.7c1,0,1.8,0.9,1.8,1.9V7.7z M237.1,23.3v-3.6h-1.2c-1,0-1.8-0.8-1.8-1.8V0h-3.9v18
	c0,3,2.6,5.4,5.7,5.4L237.1,23.3z M226.3,23.2V6.5h-3.7v12.1c0,0.8-0.9,1.3-1.9,1.3h-2.2c-1,0-1.8-0.8-1.8-1.8V6.4h-3.9V18
	c0,3,2.3,5.4,5.5,5.4h1.7c1.3,0,2.6-1.2,2.7-1.3v1.2L226.3,23.2z M208.5,23.2V11.5c0-3-1.9-5.2-5.4-5.2h-1.7c-1.5,0-2.7,1.3-2.7,1.3
	V0h-3.9v23.2h3.9V10.4c0,0,0.6-0.8,2.1-0.8h2.1c1.2,0,1.8,0.8,1.8,1.8v11.7h3.7V23.2z M191.3,18v-0.1h-3.7c0,1.7-0.6,1.9-1.8,1.9
	h-2.2c-1,0-1.9-0.9-1.9-1.9v-6.4c0-1,0.9-1.8,1.9-1.8h2.2c1,0,1.8,0.8,1.8,1.8h3.7c0-3.1-2.2-5.2-5.5-5.2h-2.3
	c-3.1,0-5.5,2.3-5.5,5.4v6.3c0,3,2.3,5.5,5.5,5.5h2.3C189,23.3,191.3,21,191.3,18 M174.6,18.8v-1.3c0-2.7-1.8-4.5-4.4-4.5h-4.6
	c-0.4,0-0.9-0.1-0.9-0.8v-1.8c0-0.6,0.4-0.8,0.9-0.8h3.5c0.6,0,1,0.1,1,1.2h3.9c0-2.7-2.2-4.6-4.8-4.6h-3.6c-2.6,0-4.6,1.9-4.6,4.5
	v1.3c0,2.6,2.1,4.4,4.6,4.4h4c0.4,0,1,0.3,1,0.9V19c0,0.4-0.4,0.8-1,0.8h-4.4c-0.6,0-0.9-0.3-0.9-1.2h-3.9c0,2.7,2.1,4.8,4.6,4.8
	h4.6C172.5,23.3,174.6,21.2,174.6,18.8 M157.2,23.2V11.5c0-3-2.1-5.2-5.2-5.2H150c-1.3,0-2.3,1.2-2.6,1.3V0h-3.9v23.2h3.9V11.1
	c0-0.9,0.9-1.3,1.8-1.3h2.2c1.2,0,1.9,0.8,1.9,1.8v11.7H157.2z M140.1,18v-0.1h-3.9c0,1.7-0.6,1.9-1.8,1.9h-2.2
	c-1,0-1.8-0.9-1.8-1.9v-6.4c0-1,0.8-1.8,1.8-1.8h2.2c1.2,0,1.8,0.8,1.8,1.8h3.9c0-3.1-2.3-5.2-5.7-5.2h-2.6c-3.1,0-5.4,2.3-5.4,5.4
	v6.3c0,3,2.3,5.5,5.5,5.5h2.3C137.5,23.3,140.1,21,140.1,18 M105.5,23.2V0h-4v9.5H94V0h-4v23.2h4v-9.8h7.5v9.8H105.5z M253.2,16.6
	v-5c0-3-2.3-5.4-5.5-5.4h-2.2c-3.1,0-5.7,2.3-5.7,5.4v6.3c0,3,2.6,5.5,5.7,5.5h2.6c2.8,0,5.2-2.1,5.2-4.8h-3.9
	c0,0.6-0.4,1.2-1.3,1.2h-2.6c-1,0-1.9-0.8-1.9-1.8v-1.3L253.2,16.6z M243.5,11.5c0-1,0.9-1.8,1.9-1.8h2.1c1,0,1.9,0.8,1.9,1.8v1.8
	h-5.9L243.5,11.5z M117.3,6.3h-2.2c-3.1,0-5.7,2.3-5.7,5.4v6.3c0,3,2.6,5.5,5.7,5.5h2.2c3.1,0,5.5-2.3,5.5-5.4v-6.4
	C122.8,8.6,120.5,6.3,117.3,6.3 M119.1,18c0,1-0.8,1.8-1.8,1.8h-2.2c-1.2,0-1.9-0.8-1.9-1.8v-6.6c0-1,0.9-1.8,1.9-1.8h2.2
	c1,0,1.8,0.8,1.8,1.8V18z M32.5,17.5h-6.4v0.2c0,1.9-1.6,3.5-3.5,3.5h-5.2v6.4h5.2c1.9,0,3.5,1.6,3.5,3.5v1.5h6.4V31
	c0-2.6-1-4.9-2.6-6.7c1.7-1.8,2.6-4.1,2.6-6.7L32.5,17.5z M17.5,6.4h5.9c1.6,0,2.8,1.2,2.8,2.8v5.9h6.4V9c-0.1-5-4.1-9-9.2-9h-5.9
	V6.4z M0,17.5v15h6.3v-4.9h8.8v-6.3H6.3v-3.8H0z M26.2,35.1V41c0,1.6-1.2,2.8-2.8,2.8h-5.9v6.4h5.9c5,0,9-4,9-9v-5.9L26.2,35.1z
	 M15.1,43.8H6.3v-8.7H0v15h15.1V43.8z M6.3,15.1V6.4h8.8V0H0v15.1H6.3z M37.5,17.5h6.4v15.1h-6.4V17.5z M55,6.4H61
	c1.6,0,2.8,1.2,2.8,2.8v5.9h6.4V9c0-5-4-9-9-9h-5.9L55,6.4z M63.7,17.5h6.4v15.1h-6.4V17.5z M52.6,43.8h-5.9c-1.6,0-2.8-1.2-2.8-2.8
	v-5.9h-6.4V41c0,5,4,9,9,9h5.9L52.6,43.8z M63.7,35.1V41c0,1.6-1.2,2.8-2.8,2.8H55v6.4H61c5,0,9-4,9-9v-5.9L63.7,35.1z M43.9,15.1V9
	c0-1.6,1.2-2.8,2.8-2.8h5.9V0h-5.9c-5,0-9,4-9,9V15L43.9,15.1z M94.8,40.2V50h-2v-9.8h-2.9v-1.9h7.9v1.9H94.8z M100.1,50V38.2h6.9v2
	h-4.9v3h4.9v1.9h-4.9v3h4.9V50L100.1,50z M117.9,47.2c0,0.4-0.1,0.8-0.2,1.1s-0.3,0.7-0.7,0.9c-0.2,0.2-0.6,0.4-0.9,0.7
	c-0.3,0.1-0.8,0.2-1.1,0.2h-2c-0.4,0-0.8-0.1-1.1-0.2c-0.3-0.1-0.7-0.3-0.9-0.7c-0.2-0.2-0.4-0.6-0.7-0.9c-0.2-0.3-0.2-0.8-0.2-1.1
	v-6.1c0-0.4,0.1-0.8,0.2-1.1c0.1-0.3,0.3-0.7,0.7-0.9c0.2-0.2,0.6-0.4,0.9-0.7c0.3-0.1,0.8-0.2,1.1-0.2h2c0.4,0,0.8,0.1,1.1,0.2
	c0.3,0.1,0.7,0.3,0.9,0.7c0.2,0.2,0.4,0.6,0.7,0.9s0.2,0.8,0.2,1.1h-2c0-0.2-0.1-0.6-0.2-0.7c-0.1-0.1-0.4-0.3-0.7-0.3h-1.9
	c-0.2,0-0.4,0.1-0.7,0.2c-0.2,0.2-0.2,0.4-0.2,0.7v6.4c0,0.2,0.1,0.4,0.2,0.7c0.2,0.2,0.4,0.2,0.7,0.2h1.9c0.2,0,0.4-0.1,0.7-0.3
	c0.2-0.2,0.2-0.4,0.2-0.7L117.9,47.2z M126.4,50v-4.9h-3.8V50h-2V38.2h2v4.9h3.8v-4.9h2V50L126.4,50z M137.3,50l-3.8-7.6V50h-2V38.2
	h2.1l3.8,7.8v-7.8h2V50L137.3,50z M142.8,50V38.2h2V50L142.8,50z M154.3,50l-4.1-5v5h-2V38.2h2V43l4.1-4.8h2.6l-5,5.7l5,6
	C156.7,50,154.3,50,154.3,50 M178.9,50h-2.6l-2-7.7l-2,7.7h-2.6l-2.3-11.8h2.1l1.8,8.8l2.1-8.8h2l2.1,8.8l1.7-8.8h2.1L178.9,50z
	 M184.2,50V38.2h2V50L184.2,50z M195.4,50l-2.5-4.8h-1.3V50h-2V38.2h4.9c0.4,0,0.8,0.1,1.1,0.2c0.3,0.1,0.7,0.3,0.9,0.7
	c0.2,0.2,0.4,0.6,0.7,0.9c0.1,0.3,0.2,0.8,0.2,1.1v1c0,0.3-0.1,0.7-0.2,1c-0.1,0.3-0.3,0.6-0.6,0.9c-0.2,0.2-0.4,0.4-0.8,0.7
	s-0.7,0.3-1,0.3l2.6,4.9L195.4,50z M195.4,41.2c0-0.2-0.1-0.6-0.3-0.7c-0.2-0.2-0.4-0.3-0.7-0.3h-2.9v3.1h2.9c0.2,0,0.4-0.1,0.7-0.3
	c0.2-0.2,0.3-0.4,0.3-0.7V41.2z M204.5,40.2V50h-2v-9.8h-2.9v-1.9h7.9v1.9H204.5z M217.6,47.2c0,0.4-0.1,0.8-0.2,1.1
	s-0.3,0.7-0.7,0.9c-0.3,0.2-0.6,0.4-0.9,0.7c-0.3,0.1-0.8,0.2-1.1,0.2h-2c-0.4,0-0.8-0.1-1.1-0.2c-0.3-0.1-0.7-0.3-0.9-0.7
	c-0.2-0.3-0.4-0.6-0.7-0.9c-0.1-0.3-0.2-0.8-0.2-1.1h2c0,0.2,0.1,0.6,0.3,0.7c0.2,0.1,0.4,0.3,0.7,0.3h1.9c0.2,0,0.4-0.1,0.7-0.3
	c0.2-0.2,0.3-0.4,0.3-0.7v-0.6c0-0.4-0.1-0.7-0.6-0.9l-4-2c-0.4-0.2-0.8-0.7-1-1.1c-0.2-0.4-0.3-0.9-0.3-1.5V41
	c0-0.4,0.1-0.8,0.2-1.1c0.1-0.3,0.3-0.7,0.7-0.9c0.3-0.2,0.6-0.4,0.9-0.7c0.3-0.1,0.8-0.2,1.1-0.2h1.7c0.4,0,0.8,0.1,1.1,0.2
	c0.3,0.1,0.7,0.3,0.9,0.7c0.2,0.2,0.4,0.6,0.7,0.9c0.1,0.3,0.2,0.8,0.2,1.1h-2c0-0.2-0.1-0.6-0.3-0.7c-0.2-0.2-0.4-0.3-0.7-0.3h-1.6
	c-0.2,0-0.4,0.1-0.7,0.3c-0.3,0.3-0.3,0.4-0.3,0.7v0.2c0,0.2,0,0.3,0.1,0.6c0.1,0.2,0.2,0.2,0.3,0.3l4,2c0.4,0.2,0.8,0.6,1,1
	c0.2,0.4,0.3,0.9,0.3,1.5L217.6,47.2z M228.2,47.2c0,0.4-0.1,0.8-0.2,1.1c-0.1,0.3-0.3,0.7-0.7,0.9c-0.2,0.2-0.6,0.4-0.9,0.7
	c-0.3,0.1-0.8,0.2-1.1,0.2h-2c-0.4,0-0.8-0.1-1.1-0.2c-0.3-0.1-0.7-0.3-0.9-0.7s-0.4-0.6-0.7-0.9c-0.2-0.3-0.2-0.8-0.2-1.1v-6.1
	c0-0.4,0.1-0.8,0.2-1.1c0.1-0.3,0.3-0.7,0.7-0.9s0.6-0.4,0.9-0.7c0.3-0.1,0.8-0.2,1.1-0.2h2c0.4,0,0.8,0.1,1.1,0.2
	c0.3,0.1,0.7,0.3,0.9,0.7c0.2,0.2,0.4,0.6,0.7,0.9c0.1,0.3,0.2,0.8,0.2,1.1h-2c0-0.2-0.1-0.6-0.2-0.7c-0.1-0.1-0.4-0.3-0.7-0.3h-2
	c-0.2,0-0.4,0.1-0.7,0.2c-0.2,0.1-0.2,0.4-0.2,0.7v6.4c0,0.2,0.1,0.4,0.2,0.7c0.2,0.2,0.4,0.2,0.7,0.2h1.9c0.2,0,0.4-0.1,0.7-0.3
	c0.2-0.2,0.2-0.4,0.2-0.7L228.2,47.2z M236.8,50v-4.9H233V50h-2V38.2h2v4.9h3.8v-4.9h2V50L236.8,50z M248.6,50l-0.7-2h-4.4l-0.7,2
	h-2.1l3.9-11.8h2.1l3.9,11.8L248.6,50z M245.8,40.9l-1.6,5.2h3.1L245.8,40.9z M253,50V38.2h6.9v2H255v3h4.9v1.9H255V50L253,50z
	 M267.3,40.2V50h-2v-9.8h-2.9v-1.9h7.9v1.9H267.3z M290,47.3c0,0.4-0.1,0.8-0.2,1.1c-0.1,0.3-0.3,0.7-0.7,0.9
	c-0.3,0.2-0.6,0.4-0.9,0.7c-0.3,0.1-0.7,0.2-1.1,0.2H285c-0.4,0-0.8-0.1-1.1-0.2c-0.3-0.1-0.7-0.3-0.9-0.7c-0.2-0.2-0.4-0.6-0.7-0.9
	c-0.2-0.3-0.2-0.8-0.2-1.1v-6.1c0-0.4,0.1-0.8,0.2-1.1c0.1-0.3,0.3-0.7,0.7-0.9c0.3-0.2,0.6-0.4,0.9-0.7s0.8-0.2,1.1-0.2h2
	c0.4,0,0.8,0.1,1.1,0.2c0.3,0.1,0.7,0.3,0.9,0.7c0.2,0.3,0.4,0.6,0.7,0.9c0.2,0.3,0.2,0.8,0.2,1.1h-2c0-0.2-0.1-0.6-0.2-0.7
	c-0.1-0.1-0.4-0.3-0.7-0.3h-1.9c-0.2,0-0.6,0.1-0.7,0.3c-0.2,0.2-0.3,0.4-0.3,0.7v6.3c0,0.2,0.1,0.4,0.3,0.7
	c0.3,0.3,0.4,0.3,0.7,0.3h1.9c0.2,0,0.4-0.1,0.7-0.3c0.3-0.3,0.3-0.4,0.3-0.7v-2.2h-1.9v-1.9h3.9L290,47.3z M292.9,50V38.2h6.9v2
	h-4.9v3h4.9v1.9h-4.9v3h4.9V50L292.9,50z M310.6,47.2c0,0.4-0.1,0.8-0.2,1.1s-0.3,0.7-0.7,0.9c-0.2,0.2-0.6,0.4-0.9,0.7
	c-0.3,0.2-0.8,0.2-1.1,0.2h-2c-0.4,0-0.8-0.1-1.1-0.2c-0.3-0.1-0.7-0.3-0.9-0.7c-0.2-0.3-0.4-0.6-0.7-0.9c-0.2-0.3-0.2-0.8-0.2-1.1
	h2c0,0.2,0.1,0.6,0.3,0.7c0.2,0.1,0.4,0.3,0.7,0.3h1.9c0.2,0,0.6-0.1,0.7-0.3c0.2-0.2,0.3-0.4,0.3-0.7v-0.6c0-0.4-0.1-0.7-0.6-0.9
	l-4-2c-0.4-0.2-0.8-0.7-1-1.1c-0.2-0.4-0.3-0.9-0.3-1.5V41c0-0.4,0.1-0.8,0.2-1.1c0.1-0.3,0.3-0.7,0.7-0.9c0.3-0.2,0.6-0.4,0.9-0.7
	c0.3-0.2,0.8-0.2,1.1-0.2h1.7c0.4,0,0.8,0.1,1.1,0.2c0.3,0.1,0.7,0.3,0.9,0.7c0.2,0.2,0.4,0.6,0.7,0.9c0.2,0.3,0.2,0.8,0.2,1.1h-2
	c0-0.2-0.1-0.6-0.3-0.7c-0.2-0.2-0.4-0.3-0.7-0.3h-1.6c-0.2,0-0.6,0.1-0.7,0.3c-0.2,0.2-0.3,0.4-0.3,0.7v0.2c0,0.2,0,0.3,0.1,0.6
	c0.1,0.2,0.2,0.2,0.3,0.3l4,2c0.4,0.2,0.8,0.6,1,1c0.2,0.4,0.3,0.9,0.3,1.5L310.6,47.2z M321.3,47.3c0,0.3-0.1,0.8-0.2,1.1
	s-0.3,0.7-0.7,0.9c-0.2,0.2-0.6,0.4-0.9,0.7c-0.3,0.1-0.7,0.2-1.1,0.2h-2.1c-0.4,0-0.8-0.1-1.1-0.2c-0.3-0.1-0.7-0.3-0.9-0.7
	c-0.2-0.2-0.4-0.6-0.7-0.9c-0.2-0.3-0.2-0.8-0.2-1.1v-9h2v9c0,0.2,0.1,0.4,0.3,0.7c0.3,0.3,0.4,0.3,0.7,0.3h1.9
	c0.2,0,0.4-0.1,0.7-0.3c0.3-0.3,0.3-0.4,0.3-0.7v-9h2L321.3,47.3z M330.1,50l-3.8-7.6V50h-2V38.2h2.1l3.8,7.8v-7.8h2V50L330.1,50z
	 M343,47.1c0,0.3-0.1,0.8-0.2,1.1c-0.1,0.3-0.3,0.7-0.7,0.9c-0.3,0.2-0.6,0.4-0.9,0.7c-0.3,0.1-0.7,0.2-1.1,0.2h-5V38.2h4.9
	c0.3,0,0.8,0.1,1.1,0.2c0.3,0.1,0.7,0.3,1,0.7c0.2,0.2,0.4,0.6,0.7,0.9c0.1,0.3,0.2,0.8,0.2,1.1V47.1z M341,41.2
	c0-0.2-0.1-0.6-0.3-0.7c-0.2-0.1-0.4-0.3-0.7-0.3h-2.8v7.9h2.9c0.2,0,0.4-0.1,0.7-0.3c0.2-0.2,0.3-0.4,0.3-0.7v-5.9L341,41.2z
	 M352,50v-4.9h-3.8V50h-2.1V38.2h2v4.9h3.8v-4.9h2V50L352,50z M357,50V38.2h6.9v2H359v3h4.9v1.9H359v3h4.9V50L357,50z M367.2,50
	V38.2h2V50L367.2,50z M377,40.2V50h-2v-9.8h-2.9v-1.9h7.9v1.9H377z"/>
</svg>
