<svg xmlns="http://www.w3.org/2000/svg" viewBox="0 0 87 66"><path fill="#e2001a" d="M86.6 18.6v-7.7c0-6-4.9-10.9-10.9-10.9H68v7.8h7c2.1 0 3.8 1.7 3.8 3.8v7h7.8zm0 21.6V21.6h-7.8v18.6h7.8zM64.9 7.8V0h-7.6c-5.9 0-10.9 4.9-10.9 10.9v7.7H54v-7c0-2.1 1.9-3.8 4-3.8h6.9zM86.6 51v-7.7h-7.8v7c0 1.7-.9 3.1-2.4 3.6-.5.2-.9.2-1.4.2h-7v7.8h7.7c2.4 0 4.7-.7 6.5-2.1 1.9-1.4 3.3-3.5 4-5.8.3-1.1.4-2 .4-3zM40.2 18.6v-7.7C40.2 5 35.3 0 29.3 0h-7.7v7.8h7c2.1 0 3.9 1.7 3.9 3.8v7h7.7zm13.9 3h-7.7v18.6H54c0-4.6.1-1.1.1-18.6zm10.8 40.2V54H58c-.5 0-.9 0-1.4-.2-1.5-.6-2.6-1.9-2.6-3.6v-7h-7.6V51c0 1 .1 1.9.4 2.9.6 2.3 2 4.5 4 5.8 1.8 1.4 4.1 2.1 6.5 2.1h7.6zm-46.3-54V0H0v18.6h7.8V7.8h10.8zm21.6 32.4v-2.3c0-.6 0-1-.1-1.5-.4-2.5-1.7-4.7-3.5-6.3 2.2-1.9 3.6-4.5 3.6-7.6v-.8h-7.7v.8c0 2.1-1.8 3.8-3.9 3.8h-7v7.8h7c1.6 0 3 .9 3.5 2.3.2.5.4.9.4 1.5v2.3h7.7zm-21.6-6.1v-7.8H7.8v-4.6H0v18.6h7.8v-6.1h10.8v-.1zM40.2 51v-7.7h-7.7V51c0 1.3-.8 2.4-1.9 2.9-.4.2-.7.2-1.2.2h-7.8v7.8h7.7c2.4 0 4.7-.7 6.5-2.1 1.9-1.4 3.3-3.5 4-5.8.3-1.1.4-2 .4-3zM18.6 61.8V54H7.8V43.3H0v18.6h18.6v-.1z"/></svg>
